<?xml version="1.0" encoding="utf-8"?>
<!-- Generator: Adobe Illustrator 16.0.0, SVG Export Plug-In . SVG Version: 6.00 Build 0)  -->
<!DOCTYPE svg PUBLIC "-//W3C//DTD SVG 1.1//EN" "http://www.w3.org/Graphics/SVG/1.1/DTD/svg11.dtd">
<svg version="1.1" id="Layer_1" xmlns="http://www.w3.org/2000/svg" xmlns:xlink="http://www.w3.org/1999/xlink" x="0px" y="0px"
	 width="100px" height="100px" viewBox="0 0 100 100" enable-background="new 0 0 100 100" xml:space="preserve">
<path fill-rule="evenodd" clip-rule="evenodd" fill="#939598" d="M50.024,100C22.469,100.112-0.213,77.534,0.001,49.594
	C0.215,22.209,22.629-0.228,50.461,0.001c27.408,0.226,49.965,22.791,49.533,50.825C99.581,77.92,77.386,100.069,50.024,100z
	 M25.006,52.563c-7.082,0-14.02,0-20.957,0c-0.019,0.144-0.04,0.224-0.038,0.3C4.484,59.54,6.278,65.826,9.486,71.71
	c0.251,0.46,0.53,0.616,1.055,0.613c5.73-0.02,11.457-0.009,17.187-0.012c0.212,0,0.424-0.02,0.721-0.032
	C26.373,65.854,25.258,59.302,25.006,52.563z M25,47.486c0.258-6.752,1.366-13.331,3.475-19.816c-0.342,0-0.603,0-0.863,0
	c-5.647,0-11.295,0.013-16.943-0.019c-0.629,0-0.943,0.206-1.229,0.734c-2.443,4.537-4.102,9.336-4.927,14.42
	c-0.252,1.533-0.37,3.088-0.552,4.681C11.031,47.486,17.979,47.486,25,47.486z M72.543,72.312c0.421,0,0.713,0,1.002,0
	c5.252,0,10.501-0.015,15.749,0.018c0.693,0.002,1.023-0.238,1.334-0.825c2.535-4.702,4.185-9.702,4.973-14.981
	c0.195-1.299,0.275-2.618,0.412-3.962c-6.771,0-13.391,0-20.025,0C75.762,59.297,74.626,65.823,72.543,72.312z M72.525,27.67
	c2.121,6.541,3.231,13.112,3.469,19.787c6.708,0,13.324,0,20.009,0c-0.064-0.704-0.118-1.34-0.18-1.976
	c-0.588-6.083-2.39-11.792-5.308-17.16c-0.258-0.473-0.538-0.67-1.102-0.665c-5.351,0.025-10.706,0.014-16.06,0.014
	C73.118,27.67,72.881,27.67,72.525,27.67z M52.474,72.264c0.177,0.022,0.284,0.045,0.383,0.045
	c4.957,0.003,9.911-0.012,14.864,0.021c0.606,0.002,0.702-0.341,0.84-0.746c1.87-5.486,2.969-11.133,3.392-16.912
	c0.051-0.699,0.007-1.407,0.007-2.107c-6.55,0-13.004,0-19.485,0C52.474,59.151,52.474,65.675,52.474,72.264z M52.476,47.481
	c6.535,0,12.995,0,19.458,0c0.028-0.112,0.064-0.184,0.066-0.259c0.008-0.186,0.011-0.375,0.003-0.559
	c-0.29-6.279-1.444-12.391-3.483-18.336c-0.181-0.534-0.423-0.671-0.959-0.668c-4.79,0.022-9.584,0.011-14.377,0.014
	c-0.23,0-0.458,0.03-0.708,0.046C52.476,34.321,52.476,40.865,52.476,47.481z M48.452,72.312c0-6.652,0-13.19,0-19.764
	c-6.516,0-12.97,0-19.459,0c-0.016,0.196-0.046,0.348-0.04,0.505c0.335,6.264,1.412,12.391,3.421,18.347
	c0.222,0.658,0.479,0.946,1.257,0.938c4.629-0.051,9.264-0.025,13.894-0.025C47.814,72.312,48.104,72.312,48.452,72.312z
	 M48.444,47.494c0-6.645,0-13.207,0-19.754c-0.11-0.03-0.158-0.056-0.209-0.056c-5.005-0.006-10.015-0.016-15.02,0.01
	c-0.22,0-0.565,0.263-0.641,0.481c-1.916,5.364-3.016,10.897-3.469,16.568c-0.07,0.912-0.102,1.826-0.152,2.751
	C35.508,47.494,41.949,47.494,48.444,47.494z M13.146,77.29c7.421,10.015,17.063,16.149,29.182,18.485
	c-0.051-0.116-0.064-0.169-0.096-0.211c-0.252-0.311-0.512-0.61-0.764-0.924c-4.23-5.227-8.123-10.674-10.901-16.838
	c-0.212-0.471-0.509-0.521-0.935-0.515c-2.636,0.009-5.275,0.002-7.911,0.002C18.924,77.29,16.13,77.29,13.146,77.29z M58.786,4.247
	c0.035,0.183,0.026,0.246,0.054,0.281c0.268,0.335,0.538,0.662,0.806,0.992c4.201,5.179,8.03,10.603,10.802,16.702
	c0.221,0.482,0.513,0.503,0.93,0.503c4.926-0.008,9.852-0.005,14.776-0.005c0.2,0,0.401,0,0.689,0
	c-0.089-0.193-0.121-0.29-0.173-0.373c-2.273-3.808-5.074-7.158-8.613-9.86c-4.725-3.609-10.104-5.819-15.788-7.371
	C61.134,4.808,59.98,4.544,58.786,4.247z M13.132,22.721c5.384,0,10.575,0.007,15.767-0.021c0.222-0.002,0.525-0.289,0.656-0.52
	c0.692-1.228,1.278-2.514,2.007-3.714c2.907-4.799,6.478-9.1,10.114-13.348c0.211-0.251,0.42-0.511,0.747-0.902
	C29.692,5.838,20.628,12.873,13.132,22.721z M59.882,95.674c11.395-2.343,20.327-8.521,26.846-18.347
	c-0.127-0.013-0.224-0.032-0.319-0.032c-5.059-0.003-10.119,0.002-15.183-0.013c-0.467-0.002-0.619,0.221-0.807,0.586
	c-1.803,3.462-3.515,6.977-5.486,10.346C63.408,90.822,61.551,93.238,59.882,95.674z M66.207,77.354c-4.633,0-9.173,0-13.718,0
	c0,6.197,0,12.337,0,18.552C59.423,91.429,63.169,84.7,66.207,77.354z M48.46,4.089c-5.942,5.524-11.181,11.334-14.749,18.591
	c4.991,0,9.849,0,14.749,0C48.46,16.53,48.46,10.421,48.46,4.089z M34.75,77.332c3.234,7.219,7.025,13.868,13.699,18.571
	c0-6.271,0-12.398,0-18.571C43.9,77.332,39.406,77.332,34.75,77.332z M65.283,22.691c-3.256-6.908-7.093-13.305-12.77-18.632
	c0,6.33,0,12.48,0,18.632C56.776,22.691,60.975,22.691,65.283,22.691z"/>
</svg>
