<?xml version="1.0" encoding="utf-8"?>
<!-- Generator: Adobe Illustrator 16.0.0, SVG Export Plug-In . SVG Version: 6.00 Build 0)  -->
<!DOCTYPE svg PUBLIC "-//W3C//DTD SVG 1.1//EN" "http://www.w3.org/Graphics/SVG/1.1/DTD/svg11.dtd">
<svg version="1.1" id="Layer_1" xmlns="http://www.w3.org/2000/svg" xmlns:xlink="http://www.w3.org/1999/xlink" x="0px" y="0px"
	 width="100px" height="100px" viewBox="0 0 100 100" enable-background="new 0 0 100 100" xml:space="preserve">
<g>
	<path fill-rule="evenodd" clip-rule="evenodd" fill="#939598" d="M0,3.189c2.061-3.583,4.762-3.875,8.006-2.218
		c16.57,8.461,31.563,19.487,43.15,35.652c2.614,3.646,4.465,8.343,5.658,12.897c2.373,9.067-4.399,17.779-12.288,14.971
		c-6.099-2.169-12.308-6.174-16.884-11.224C16.151,40.591,7.397,25.455,1.069,8.611C0.81,7.925,0.36,7.338,0,6.703
		C0,5.531,0,4.359,0,3.189z M11.641,10.366c-0.736,0.801-1.472,1.603-2.208,2.4c7.6,12.154,15.202,24.311,22.591,36.126
		c4.305-4.315,7.587-7.603,12.016-12.042C32.779,27.647,22.21,19.006,11.641,10.366z M38.811,54.205
		c4.21,1.693,7.889,5.303,10.523,0.931c1.314-2.186-0.335-6.691-0.642-10.147c-0.556,0.02-1.109,0.044-1.665,0.064
		C44.531,47.831,42.036,50.61,38.811,54.205z"/>
	<path fill-rule="evenodd" clip-rule="evenodd" fill="#939598" d="M100,90.142c-12.071,13.772-33.266,12.908-43.746-1.298
		c-6.298-8.54-3.869-22.355,4.837-27.519c5.791-3.439,12.15-1.947,15.827,4.253c1.88,3.167,3.139,6.865,4.383,10.458
		C85.677,88.651,87.515,90.15,100,90.142z M80.107,92.226c-2.716-7.078-5.132-13.657-7.767-20.12
		c-1.538-3.777-3.998-5.897-7.83-3.788c-4.828,2.654-6.562,10.208-3.167,14.9C66.095,89.785,72.442,92.342,80.107,92.226z"/>
</g>
</svg>
