<?xml version="1.0" encoding="utf-8"?>
<!-- Generator: Adobe Illustrator 16.0.0, SVG Export Plug-In . SVG Version: 6.00 Build 0)  -->
<!DOCTYPE svg PUBLIC "-//W3C//DTD SVG 1.1//EN" "http://www.w3.org/Graphics/SVG/1.1/DTD/svg11.dtd">
<svg version="1.1" id="Layer_1" xmlns="http://www.w3.org/2000/svg" xmlns:xlink="http://www.w3.org/1999/xlink" x="0px" y="0px"
	 width="100px" height="100px" viewBox="0 0 100 100" enable-background="new 0 0 100 100" xml:space="preserve">
<g id="n0HEpr_1_">
	<g>
		<path fill-rule="evenodd" clip-rule="evenodd" fill="#939598" d="M68.498,71.714c-18.347,15.924-44.443,12.628-58.49-3.752
			C-4.093,51.522-3.193,27.048,12.072,11.919C27.437-3.299,51.977-4.033,68.221,10.228c16.296,14.303,19.202,40.142,3.487,58.267
			c0.929,0.896,1.847,1.838,2.843,2.689c0.235,0.201,0.733,0.194,1.091,0.134c2.128-0.36,3.994,0.073,5.558,1.637
			c5.649,5.663,11.315,11.311,16.963,16.977c2.405,2.408,2.449,6.042,0.137,8.358c-2.304,2.313-5.959,2.281-8.358-0.108
			c-5.666-5.646-11.31-11.316-16.976-16.967c-1.566-1.56-1.994-3.42-1.669-5.551c0.067-0.431-0.086-1.018-0.356-1.353
			C70.202,73.408,69.347,72.602,68.498,71.714z M75.09,41.127c0.003-18.76-15.228-34.09-33.875-34.099
			C22.386,7.019,7.038,22.179,7.028,40.799C7.016,59.731,22.15,75.09,40.823,75.093C59.776,75.096,75.09,59.919,75.09,41.127z"/>
		<path fill-rule="evenodd" clip-rule="evenodd" fill="#939598" d="M44.623,12.12c-15.575,6.327-26.288,17.136-32.394,32.718
			C10.806,28.027,26.301,11.096,44.623,12.12z"/>
	</g>
</g>
</svg>
