<?xml version="1.0" encoding="utf-8"?>
<!-- Generator: Adobe Illustrator 16.0.0, SVG Export Plug-In . SVG Version: 6.00 Build 0)  -->
<!DOCTYPE svg PUBLIC "-//W3C//DTD SVG 1.1//EN" "http://www.w3.org/Graphics/SVG/1.1/DTD/svg11.dtd">
<svg version="1.1" id="Layer_1" xmlns="http://www.w3.org/2000/svg" xmlns:xlink="http://www.w3.org/1999/xlink" x="0px" y="0px"
	 width="100px" height="100px" viewBox="0 0 100 100" enable-background="new 0 0 100 100" xml:space="preserve">
<g id="uRCfyd_1_">
	<g>
		<path fill-rule="evenodd" clip-rule="evenodd" fill="#939598" d="M49.956,0C22.344,0.021-0.034,22.021,0,50.161
			C0.038,77.893,22.395,99.982,49.85,100c27.939,0.014,49.925-22.309,50.15-50.034C99.751,22.261,77.772-0.014,49.956,0z
			 M49.593,92.088C24.428,91.811,6.583,70.309,8.025,48.076C8.852,25.688,27.513,7.602,50.304,7.902
			c24.623,0.325,42.125,20.151,41.743,42.59C91.626,75.114,71.719,92.334,49.593,92.088z"/>
		<path fill-rule="evenodd" clip-rule="evenodd" fill="#939598" d="M74.158,47.382c-12.747-5.96-25.501-11.894-38.254-17.828
			c-2.303-1.07-3.905-0.759-4.623,0.817v39.23c0.656,1.306,2.022,1.768,3.778,1.166c0.376-0.134,0.745-0.284,1.1-0.451
			c3.28-1.525,6.546-3.08,9.83-4.591c9.402-4.327,18.701-8.872,28.169-13.053c1.186-0.522,2.695-1.077,2.702-2.663
			C76.874,48.4,75.347,47.936,74.158,47.382z"/>
	</g>
</g>
</svg>
