<?xml version="1.0" encoding="utf-8"?>
<!-- Generator: Adobe Illustrator 16.0.0, SVG Export Plug-In . SVG Version: 6.00 Build 0)  -->
<!DOCTYPE svg PUBLIC "-//W3C//DTD SVG 1.1//EN" "http://www.w3.org/Graphics/SVG/1.1/DTD/svg11.dtd">
<svg version="1.1" id="Layer_1" xmlns="http://www.w3.org/2000/svg" xmlns:xlink="http://www.w3.org/1999/xlink" x="0px" y="0px"
	 width="100px" height="100px" viewBox="0 0 100 100" enable-background="new 0 0 100 100" xml:space="preserve">
<g id="q5S5PI_1_">
	<g>
		<path fill="#939598" d="M100,29.946c0,19.18,0,38.363,0,57.542c-3.763,9.905-10.154,12.626-18.638,12.496
			C54.246,99.58,27.121,99.936,0,100c0-27.521,0-55.044,0-82.566c3.479-0.169,6.97-0.614,10.436-0.423
			c3.091,0.17,4.624-1.056,5.846-4.849c2.543-7.882,7.772-11.638,14.48-12.014c3.486-0.198,6.992-0.195,10.48-0.003
			c7.209,0.398,12.835,4.278,15.848,12.712c1.141,3.188,2.619,4.207,5.286,4.133c6.65-0.192,13.329,0.352,19.958-0.161
			C90.794,16.174,96.887,19.717,100,29.946z M6.708,91.408c22.462,0,44.484,0,66.581,0c0-22.398,0-44.21,0-66.567
			c-6.745,0-13.191,0-19.872,0C51.79,13.147,46.697,8.005,37.208,7.671c-10.115-0.355-16.551,3.367-17.322,17.228
			c-4.646,0-8.764,0-13.179,0C6.708,47.198,6.708,69.013,6.708,91.408z M80.068,91.056c9.829,2.762,13.48-0.614,13.518-12.382
			c0.039-13.503,0.037-27.009,0-40.512c-0.032-12.163-4.042-15.807-13.518-12.311C80.068,47.591,80.068,69.353,80.068,91.056z"/>
		<path fill-rule="evenodd" clip-rule="evenodd" fill="#939598" d="M13.675,58.459C13.594,42.25,23.733,29.51,36.693,29.535
			c12.608,0.021,22.938,12.66,23.151,28.328C60.059,73.6,49.568,87.065,36.915,87.294C24.259,87.522,13.754,74.489,13.675,58.459z
			 M53.471,58.262c-0.01-11.665-7.488-20.983-16.835-20.98c-9.345,0.006-16.781,9.33-16.771,21.026
			c0.01,11.675,7.493,21.03,16.811,21.012C46.022,79.304,53.479,69.955,53.471,58.262z"/>
		<path fill-rule="evenodd" clip-rule="evenodd" fill="#939598" d="M36.468,24.81c-1.146-0.068-2.577,0.374-3.37-0.321
			c-1.161-1.019-1.864-2.851-2.763-4.336c2.397-1.143,4.772-3.061,7.197-3.166c1.746-0.074,3.553,2.276,5.335,3.542
			c-0.985,1.384-1.797,3.123-3.007,4.028c-0.85,0.63-2.239,0.12-3.39,0.12C36.471,24.72,36.471,24.763,36.468,24.81z"/>
	</g>
</g>
</svg>
