<?xml version="1.0" encoding="utf-8"?>
<!-- Generator: Adobe Illustrator 16.0.0, SVG Export Plug-In . SVG Version: 6.00 Build 0)  -->
<!DOCTYPE svg PUBLIC "-//W3C//DTD SVG 1.1//EN" "http://www.w3.org/Graphics/SVG/1.1/DTD/svg11.dtd">
<svg version="1.1" id="Layer_1" xmlns="http://www.w3.org/2000/svg" xmlns:xlink="http://www.w3.org/1999/xlink" x="0px" y="0px"
	 width="100px" height="100px" viewBox="0 0 100 100" enable-background="new 0 0 100 100" xml:space="preserve">
<g id="NisfzH_1_">
	<g>
		<path fill="#939598" d="M99.882,100c-33.294,0-66.588,0-99.882,0C0,66.668,0,33.335,0,0c22.197,0,44.394,0,66.588,0
			c1.106,1.284,2.034,2.716,3.347,3.827c8.901,7.538,17.961,14.942,26.759,22.561c1.618,1.402,3.224,3.58,3.235,5.407
			C100.085,54.527,99.946,77.264,99.882,100z M8.522,91.977c27.948,0,55.306,0,82.7,0c0-19.329,0-38.204,0-56.921
			c-0.767-0.301-1.115-0.555-1.471-0.561c-5.534-0.104-11.073-0.096-16.604-0.274c-8.625-0.276-13.473-4.439-13.616-11.666
			c-0.097-4.777-0.018-9.557-0.018-14.581c-17.397,0-34.057,0-50.991,0C8.522,36.103,8.522,63.828,8.522,91.977z M68.604,14.84
			c-3.059,11.115,1.474,14.754,13.423,11.843C77.841,22.988,73.1,18.808,68.604,14.84z"/>
		<path fill-rule="evenodd" clip-rule="evenodd" fill="#939598" d="M77.019,46.867c0,2.217,0,4.014,0,6.251
			c-17.981,0-35.798,0-53.979,0c0-1.97,0-3.891,0-6.251C40.844,46.867,58.661,46.867,77.019,46.867z"/>
		<path fill-rule="evenodd" clip-rule="evenodd" fill="#939598" d="M22.828,68.536c0-2.17,0-3.979,0-6.212
			c17.96,0,35.786,0,53.994,0c0,1.971,0,3.892,0,6.212C59.099,68.536,41.264,68.536,22.828,68.536z"/>
		<path fill-rule="evenodd" clip-rule="evenodd" fill="#939598" d="M77.042,77.504c0,2.165,0,3.972,0,6.185
			c-17.967,0-35.784,0-53.982,0c0-1.99,0-3.909,0-6.185C40.792,77.504,58.626,77.504,77.042,77.504z"/>
		<path fill-rule="evenodd" clip-rule="evenodd" fill="#939598" d="M53.776,31.481c0,2.264,0,4.172,0,6.345
			c-10.366,0-20.336,0-30.699,0c0-2.098,0-4.009,0-6.345C33.05,31.481,43.169,31.481,53.776,31.481z"/>
		<path fill-rule="evenodd" clip-rule="evenodd" fill="#939598" d="M22.998,22.607c0-2.315,0-4.224,0-6.414
			c5.707,0,11.103,0,16.918,0c0,2.136,0,4.148,0,6.414C34.33,22.607,28.922,22.607,22.998,22.607z"/>
	</g>
</g>
</svg>
