<?xml version="1.0" encoding="utf-8"?>
<!-- Generator: Adobe Illustrator 16.0.0, SVG Export Plug-In . SVG Version: 6.00 Build 0)  -->
<!DOCTYPE svg PUBLIC "-//W3C//DTD SVG 1.1//EN" "http://www.w3.org/Graphics/SVG/1.1/DTD/svg11.dtd">
<svg version="1.1" id="Layer_1" xmlns="http://www.w3.org/2000/svg" xmlns:xlink="http://www.w3.org/1999/xlink" x="0px" y="0px"
	 width="100px" height="100px" viewBox="0 0 100 100" enable-background="new 0 0 100 100" xml:space="preserve">
<g id="yiTM2X_1_">
	<g>
		<path fill="#939598" d="M0,89.929C0,59.951,0,29.977,0,0c33.333,0,66.666,0,100,0c0,29.977,0,59.951,0,89.929
			c-2.735,7.699-7.175,10.158-13.335,10.069c-24.44-0.365-48.89-0.365-73.33,0C7.175,100.087,2.736,97.628,0,89.929z M6.409,14.914
			c0,23.695-0.032,45.55,0.018,67.405c0.017,8.194,0.741,9.116,6.649,9.12c24.5,0.021,48.997,0.017,73.496,0.003
			c6.437-0.003,6.997-0.769,7.015-10.019c0.032-19.6,0.02-39.196-0.003-58.796c-0.002-2.104-0.178-4.208-0.289-6.62
			c-8.515,11.89-16.532,23.087-24.775,34.602c3.829,7.068,7.86,14.507,11.89,21.947c-0.172,0.239-0.343,0.479-0.518,0.717
			c-5.538-5.625-11.078-11.251-17.996-18.277c-4,6.483-7.854,12.733-12.891,20.901c-4.335-7.32-8.108-13.688-11.854-20.01
			c-6.251,6.381-11.661,11.907-17.07,17.434c-0.161-0.252-0.318-0.502-0.477-0.755c4.121-7.645,8.244-15.285,11.72-21.731
			C22.969,38.79,15.157,27.525,6.409,14.914z M87.431,8.707c-25.075,0-50.048,0-74.357,0c12.261,17.274,24.655,34.732,36.925,52.02
			C62.386,43.514,74.855,26.182,87.431,8.707z"/>
	</g>
</g>
</svg>
