<?xml version="1.0" encoding="utf-8"?>
<!-- Generator: Adobe Illustrator 16.0.0, SVG Export Plug-In . SVG Version: 6.00 Build 0)  -->
<!DOCTYPE svg PUBLIC "-//W3C//DTD SVG 1.1//EN" "http://www.w3.org/Graphics/SVG/1.1/DTD/svg11.dtd">
<svg version="1.1" id="Layer_1" xmlns="http://www.w3.org/2000/svg" xmlns:xlink="http://www.w3.org/1999/xlink" x="0px" y="0px"
	 width="100px" height="100px" viewBox="0 0 100 100" enable-background="new 0 0 100 100" xml:space="preserve">
<g>
	<g>
		<polygon fill="#939598" points="87.5,69.23 35.458,69.23 13.582,7.691 0,7.691 0,0 17.67,0 39.549,61.539 87.5,61.539 		"/>
	</g>
	<path fill="#939598" d="M56.248,88.461c0,6.371-4.198,11.539-9.375,11.539c-5.174,0-9.374-5.168-9.374-11.539
		c0-6.368,4.2-11.539,9.374-11.539C52.05,76.922,56.248,82.093,56.248,88.461z"/>
	<path fill="#939598" d="M87.5,88.461c0,6.371-4.2,11.539-9.376,11.539c-5.175,0-9.374-5.168-9.374-11.539
		c0-6.368,4.199-11.539,9.374-11.539C83.3,76.922,87.5,82.093,87.5,88.461z"/>
	<g>
		<polygon fill="#939598" points="97.498,23.078 100,15.383 31.25,15.383 33.75,23.078 		"/>
		<polygon fill="#939598" points="41.248,46.153 43.748,53.848 87.5,53.848 90.003,46.153 		"/>
		<polygon fill="#939598" points="95.002,30.77 36.25,30.77 38.75,38.461 92.498,38.461 		"/>
	</g>
</g>
</svg>
