<?xml version="1.0" encoding="utf-8"?>
<!-- Generator: Adobe Illustrator 16.0.0, SVG Export Plug-In . SVG Version: 6.00 Build 0)  -->
<!DOCTYPE svg PUBLIC "-//W3C//DTD SVG 1.1//EN" "http://www.w3.org/Graphics/SVG/1.1/DTD/svg11.dtd">
<svg version="1.1" id="Layer_1" xmlns="http://www.w3.org/2000/svg" xmlns:xlink="http://www.w3.org/1999/xlink" x="0px" y="0px"
	 width="100px" height="100px" viewBox="0 0 100 100" enable-background="new 0 0 100 100" xml:space="preserve">
<path fill="#939598" d="M100,83.82c0,8.938-8.195,16.18-18.303,16.18c-10.115,0-18.311-7.242-18.311-16.18
	c0-1.543,0.247-3.045,0.703-4.463c-0.235-0.562-0.847-0.793-1.498-1.121c-10.306-5.26-20.63-10.497-30.893-15.822
	c-0.18-0.094-0.353-0.172-0.515-0.236c-3.307,2.893-7.857,4.681-12.881,4.681C8.195,66.858,0,59.615,0,50.679
	c0-8.93,8.195-16.172,18.303-16.172c4.793,0,9.151,1.625,12.414,4.278c0.019-0.026,0.037-0.062,0.052-0.097
	c0.459-0.013,0.916-0.182,1.453-0.458c10.24-5.25,20.48-10.487,30.769-15.659c0.735-0.37,1.11-0.75,1.261-1.209
	c0.029,0,0.066,0,0.1,0.003c-0.625-1.629-0.964-3.375-0.964-5.188C63.387,7.243,71.582,0,81.697,0C91.805,0,100,7.243,100,16.176
	c0,8.939-8.195,16.179-18.303,16.179c-5.051,0-9.622-1.804-12.937-4.724c-0.666-0.286-1.225-0.124-1.99,0.264
	c-10.232,5.25-20.469,10.497-30.768,15.649c-0.423,0.214-0.717,0.429-0.923,0.653c0.986,1.986,1.534,4.181,1.534,6.482
	c0,2.211-0.504,4.314-1.405,6.229c0.206,0.152,0.456,0.299,0.754,0.451c10.005,5.043,19.987,10.117,29.911,15.27
	c0.928,0.478,1.571,0.604,2.222,0.36c3.352-3.28,8.203-5.347,13.603-5.347C91.805,67.643,100,74.888,100,83.82z"/>
</svg>
