<?xml version="1.0" encoding="utf-8"?>
<!-- Generator: Adobe Illustrator 16.0.0, SVG Export Plug-In . SVG Version: 6.00 Build 0)  -->
<!DOCTYPE svg PUBLIC "-//W3C//DTD SVG 1.1//EN" "http://www.w3.org/Graphics/SVG/1.1/DTD/svg11.dtd">
<svg version="1.1" id="Layer_1" xmlns="http://www.w3.org/2000/svg" xmlns:xlink="http://www.w3.org/1999/xlink" x="0px" y="0px"
	 width="100px" height="100px" viewBox="0 0 100 100" enable-background="new 0 0 100 100" xml:space="preserve">
<g id="UPZ6K4_1_">
	<g>
		<path fill-rule="evenodd" clip-rule="evenodd" fill="#939598" d="M100,76.771c-11.896,0-23.788,0-36.989,0
			c4.363,8.373,8.057,15.458,11.752,22.545c-0.215,0.228-0.43,0.455-0.645,0.684c-4.703-5.839-9.431-11.649-14.1-17.522
			c-6.463-8.134-13.576-8.137-20.037,0c-4.674,5.887-9.404,11.718-14.826,17.039c3.72-7.157,7.441-14.318,11.821-22.745
			c-13.189,0-25.084,0-36.977,0C0,51.18,0,25.591,0,0c33.333,0,66.665,0,100,0C100,25.591,100,51.18,100,76.771z M92.796,68.895
			c0-20.482,0-40.616,0-60.973c-28.632,0-57.115,0-85.468,0c0,20.703,0,40.814,0,60.973C36.001,68.895,64.248,68.895,92.796,68.895z
			"/>
		<path fill-rule="evenodd" clip-rule="evenodd" fill="#939598" d="M26.491,48.832c-3.997,5.951-6.523,9.715-9.404,14.003
			c-1.733-1.466-3.368-2.846-5.264-4.45c4.315-6.611,8.382-12.838,13.414-20.547c3.202,4.648,6.152,8.932,9.481,13.761
			c5.396-9.256,9.979-17.113,15.324-26.282c5.763,7.226,11.117,13.938,16.932,21.229c5.39-11.047,10.389-21.288,15.675-32.123
			c1.903,1.154,3.575,2.167,5.8,3.514c-6.557,13.571-12.967,26.831-19.882,41.14c-5.861-7.396-11.369-14.35-17.329-21.872
			c-5.486,9.308-10.026,17.011-15.401,26.129C32.661,58.408,29.814,53.988,26.491,48.832z"/>
	</g>
</g>
</svg>
