<?xml version="1.0" encoding="utf-8"?>
<!-- Generator: Adobe Illustrator 16.0.0, SVG Export Plug-In . SVG Version: 6.00 Build 0)  -->
<!DOCTYPE svg PUBLIC "-//W3C//DTD SVG 1.1//EN" "http://www.w3.org/Graphics/SVG/1.1/DTD/svg11.dtd">
<svg version="1.1" id="Layer_1" xmlns="http://www.w3.org/2000/svg" xmlns:xlink="http://www.w3.org/1999/xlink" x="0px" y="0px"
	 width="100px" height="100px" viewBox="0 0 100 100" enable-background="new 0 0 100 100" xml:space="preserve">
<g id="H1Fbod_2_">
	<g>
		<path fill-rule="evenodd" clip-rule="evenodd" fill="#939598" d="M50.067,99.748c-13.55,0-27.101,0-40.65-0.002
			c-0.178,0-0.434,0.082-0.518-0.058c-0.107-0.178,0.125-0.338,0.224-0.491c1.851-2.924,3.788-5.791,5.342-8.884
			c0.899-1.796,1.693-3.637,2.306-5.548c0.162-0.509,0.164-0.509-0.364-0.509c-2.768,0-5.535-0.014-8.302,0.004
			c-2.028,0.01-3.825-0.615-5.317-1.946c-1.605-1.432-2.588-3.23-2.598-5.405C0.163,70.67,0.14,64.431,0.202,58.195
			c0.032-3.226,1.054-6.2,2.782-8.939c1.063-1.684,2.462-3.073,3.873-4.457c2-1.962,4.004-3.922,5.979-5.909
			c1.629-1.644,3.594-2.429,5.907-2.405c0.312,0.003,0.624-0.004,0.935,0c0.211,0.001,0.312-0.094,0.306-0.304
			c-0.005-0.141,0.001-0.281,0.001-0.423c0-11.553,0-23.104,0-34.657c0-0.142,0.015-0.283-0.003-0.423
			c-0.039-0.367,0.114-0.486,0.489-0.486c13.032,0.009,26.062,0.01,39.093,0.01c6.678,0,13.355-0.001,20.031-0.002
			c0.598,0,0.601,0,0.601,0.599c0,11.68,0,23.361,0,35.042c0,0.648,0,0.66,0.662,0.641c1.46-0.048,2.877,0.123,4.212,0.755
			c0.672,0.318,1.298,0.711,1.825,1.229c2.78,2.736,5.608,5.427,8.308,8.239c2.597,2.703,4.104,5.979,4.64,9.681
			c0.13,0.892,0.161,1.789,0.16,2.688c-0.005,5.902,0.005,11.808-0.006,17.712c-0.002,1.939-0.752,3.601-2.077,5.006
			c-1.594,1.694-3.583,2.477-5.916,2.469c-2.753-0.015-5.507-0.004-8.263-0.004c-0.519,0-0.519,0.004-0.359,0.491
			c1.104,3.349,2.681,6.479,4.532,9.478c1.058,1.706,2.162,3.386,3.242,5.08c0.071,0.114,0.233,0.226,0.154,0.368
			c-0.078,0.137-0.261,0.072-0.398,0.072c-5.038,0-10.081,0-15.121,0c-8.574-0.005-17.147-0.005-25.724-0.005
			C50.067,99.746,50.067,99.746,50.067,99.748z M50.092,45.055c-9.846,0-19.694,0-29.542,0c-0.559,0-0.562-0.006-0.562-0.559
			c0-1.014-0.008-2.028,0.003-3.042c0.003-0.292-0.091-0.426-0.402-0.41c-0.324,0.017-0.649,0.019-0.975,0
			c-1.007-0.056-1.806,0.355-2.498,1.042c-2.335,2.319-4.653,4.657-7.022,6.938c-2.869,2.766-4.329,6.104-4.346,10.048
			c-0.025,5.75-0.007,11.501-0.003,17.251c0,0.421,0.032,0.846,0.191,1.249c0.537,1.351,1.65,2.12,3.124,2.122
			c3.182,0.009,6.366-0.002,9.55,0.013c0.351,0,0.495-0.102,0.562-0.452c0.457-2.462,0.734-4.947,0.957-7.438
			c0.047-0.495,0.06-0.521,0.551-0.523c0.079-0.003,0.157-0.003,0.234-0.003c20.138,0,40.275,0,60.415,0
			c0.103,0,0.208,0.009,0.311,0c0.256-0.018,0.384,0.097,0.401,0.352c0.021,0.309,0.057,0.613,0.083,0.92
			c0.194,2.251,0.456,4.491,0.866,6.713c0.057,0.307,0.183,0.429,0.512,0.429c3.182-0.011,6.366-0.043,9.549,0.009
			c1.886,0.032,3.412-1.494,3.403-3.391c-0.03-5.685-0.015-11.371-0.009-17.059c0.001-0.565-0.04-1.128-0.094-1.688
			c-0.299-3.162-1.622-5.873-3.849-8.13c-2.491-2.53-5.043-5-7.571-7.492c-0.295-0.291-0.637-0.52-1.024-0.686
			c-0.736-0.318-1.512-0.182-2.271-0.224c-0.345-0.019-0.452,0.111-0.446,0.446c0.019,0.988,0.007,1.977,0.007,2.965
			c0,0.601,0,0.601-0.599,0.601C69.764,45.055,59.927,45.055,50.092,45.055z M50.062,41.637c4.574,0,9.146,0,13.72,0
			c4.144,0,8.287,0,12.431,0c0.521,0,0.523-0.005,0.523-0.51c0-12.334,0-24.668,0-37.002c0-0.506-0.004-0.512-0.525-0.512
			c-17.408,0-34.817,0-52.223,0c-0.54,0-0.543,0.002-0.543,0.534c-0.002,12.308-0.002,24.617,0,36.927
			c0,0.563,0.003,0.563,0.585,0.563C32.708,41.637,41.384,41.637,50.062,41.637z M50.071,95.239c10.848,0,21.693,0,32.54-0.005
			c0.149,0,0.349,0.077,0.439-0.066c0.092-0.148-0.079-0.277-0.15-0.408c-0.986-1.776-1.923-3.581-2.711-5.455
			c-1.741-4.128-2.729-8.447-3.28-12.872c-0.073-0.584-0.073-0.586-0.687-0.586c-4.388,0-8.776,0-13.164,0
			c-3.494,0-6.988,0-10.483,0c-4.296,0-8.593,0-12.892,0c-5.248,0-10.496,0-15.742,0c-0.104,0-0.208,0.006-0.312,0.002
			c-0.22-0.005-0.318,0.087-0.347,0.314c-0.149,1.184-0.335,2.363-0.53,3.537c-0.885,5.371-2.793,10.373-5.496,15.094
			c-0.066,0.117-0.213,0.232-0.127,0.378c0.074,0.122,0.238,0.053,0.363,0.065c0.09,0.009,0.182,0.002,0.273,0.002
			C28.535,95.239,39.304,95.239,50.071,95.239z"/>
		<path fill-rule="evenodd" clip-rule="evenodd" fill="#939598" d="M50.087,53.989c-11.328,0-22.656,0-33.983,0
			c-0.638,0-0.638,0-0.639-0.637c-0.001-0.755-0.001-1.512,0.001-2.271c0-0.5,0.01-0.508,0.527-0.508c4.886,0,9.771,0,14.654,0
			c17.784,0,35.57,0,53.354,0c0.143,0,0.284,0.003,0.427,0.003c0.195,0,0.287,0.094,0.287,0.283c-0.002,0.949-0.002,1.9-0.002,2.849
			c0,0.194-0.104,0.279-0.292,0.279c-0.155,0-0.311,0.003-0.466,0.003C72.667,53.989,61.376,53.989,50.087,53.989z"/>
		<path fill-rule="evenodd" clip-rule="evenodd" fill="#939598" d="M35.698,58.657c0.726,0,1.453,0.003,2.182,0
			c1.158-0.003,1.918,0.506,2.297,1.537c0.332,0.911,0.022,1.911-0.827,2.571c-0.388,0.303-0.857,0.442-1.345,0.445
			c-1.531,0.015-3.066,0.031-4.597,0c-1.969-0.04-3.043-1.888-2.061-3.525c0.402-0.671,1.053-0.988,1.819-1.017
			c0.843-0.037,1.688-0.009,2.531-0.009C35.698,58.66,35.698,58.66,35.698,58.657z"/>
		<path fill-rule="evenodd" clip-rule="evenodd" fill="#939598" d="M64.585,58.663c0.803,0,1.607-0.009,2.413,0
			c1.131,0.015,2.076,0.886,2.196,2.006c0.118,1.119-0.616,2.174-1.701,2.439c-0.265,0.065-0.534,0.108-0.808,0.108
			c-1.456,0-2.908,0.012-4.363-0.003c-1.87-0.018-2.957-1.674-2.171-3.348c0.369-0.783,1.073-1.172,1.94-1.2
			c0.831-0.031,1.662-0.006,2.493-0.006C64.585,58.66,64.585,58.66,64.585,58.663z"/>
		<path fill-rule="evenodd" clip-rule="evenodd" fill="#939598" d="M50.082,63.217c-0.765,0-1.531,0.017-2.296-0.003
			c-1.827-0.04-2.92-1.868-2.044-3.426c0.395-0.702,1.027-1.104,1.834-1.116c1.7-0.029,3.399-0.021,5.1-0.003
			c0.841,0.009,1.636,0.648,1.937,1.494c0.292,0.819,0.057,1.845-0.54,2.383c-0.504,0.448-1.095,0.671-1.771,0.671
			C51.562,63.22,50.82,63.217,50.082,63.217z"/>
		<path fill-rule="evenodd" clip-rule="evenodd" fill="#939598" d="M50.118,30.944c5.583,0,11.168,0,16.751,0
			c0.607,0,0.607,0.001,0.608,0.594c0,0.808-0.009,1.615,0.008,2.425c0.006,0.309-0.104,0.444-0.421,0.443
			c-2.284-0.015-4.57,0.041-6.854-0.028c-0.596-0.019-1.193,0.03-1.789,0.031c-3.127,0.004-6.254,0.001-9.381,0.002
			c-3.869,0-7.738,0-11.608,0c-1.412,0-2.825-0.009-4.237,0.003c-0.37,0.004-0.507-0.124-0.497-0.492
			c0.019-0.82,0.004-1.641,0.01-2.462c0.001-0.491,0.03-0.516,0.58-0.516C38.897,30.944,44.507,30.944,50.118,30.944z"/>
		<path fill-rule="evenodd" clip-rule="evenodd" fill="#939598" d="M50.111,20.916c5.365,0,10.729,0,16.092,0
			c0.325,0,0.648,0.006,0.974-0.005c0.192-0.007,0.299,0.056,0.299,0.257c0,0.961,0,1.924-0.004,2.887
			c0,0.188-0.101,0.28-0.293,0.278c-0.076,0-0.154,0.001-0.232,0.001c-11.234,0-22.473,0-33.708,0c-0.517,0-0.53-0.011-0.532-0.51
			c-0.004-0.834,0.006-1.668-0.008-2.503c-0.006-0.313,0.095-0.412,0.423-0.412c5.482,0.01,10.963,0.006,16.444,0.006
			C49.747,20.916,49.928,20.916,50.111,20.916z"/>
		<path fill-rule="evenodd" clip-rule="evenodd" fill="#939598" d="M50.063,10.835c5.599,0,11.197,0,16.797,0
			c0.616,0,0.616,0.001,0.617,0.62c0,0.731,0,1.463,0,2.194c-0.001,0.606-0.001,0.607-0.633,0.606c-3.026,0-6.054-0.005-9.081-0.005
			c-6.596,0-13.196,0.005-19.793,0.006c-1.57,0-3.139,0.003-4.708-0.001c-0.535,0-0.553-0.026-0.554-0.539
			c-0.002-0.821,0.004-1.643-0.009-2.464c-0.006-0.302,0.067-0.429,0.412-0.427c5.65,0.011,11.302,0.008,16.952,0.008V10.835z"/>
	</g>
</g>
</svg>
